<svg width="31" height="33" viewBox="0 0 31 33" fill="none" xmlns="http://www.w3.org/2000/svg">
<path fill-rule="evenodd" clip-rule="evenodd" d="M10.8964 5.74597C8.6034 5.74597 6.67711 7.47008 6.4239 9.74903L5.29492 19.9099H2.07373C1.2453 19.9099 0.57373 20.5814 0.57373 21.4099V23.1312C0.57373 23.9596 1.2453 24.6312 2.07373 24.6312H24.2541C25.0825 24.6312 25.7541 23.9596 25.7541 23.1312V21.4099C25.7541 20.5814 25.0825 19.9099 24.2541 19.9099H21.0326L19.9036 9.74903C19.6504 7.47008 17.7241 5.74597 15.4312 5.74597H10.8964Z" fill="#4880FF"/>
<rect opacity="0.3" x="10.0164" y="26.2051" width="6.29508" height="6.29508" rx="2.25" fill="#FF0000"/>
<path fill-rule="evenodd" clip-rule="evenodd" d="M22.6063 17.2869C27.2419 17.2869 30.9998 13.529 30.9998 8.89344C30.9998 4.25787 27.2419 0.5 22.6063 0.5C17.9708 0.5 14.2129 4.25787 14.2129 8.89344C14.2129 13.529 17.9708 17.2869 22.6063 17.2869Z" fill="#F93C65"/>
<path d="M22.7812 13.4645C22.0852 13.4645 21.4892 13.3005 20.9932 12.9725C20.5052 12.6365 20.1332 12.1565 19.8772 11.5325C19.6212 10.9085 19.4932 10.1525 19.4932 9.26448C19.4932 8.30448 19.6372 7.49248 19.9252 6.82848C20.2132 6.15648 20.6292 5.64448 21.1732 5.29248C21.7172 4.94048 22.3692 4.76448 23.1292 4.76448C23.4252 4.76448 23.7212 4.80448 24.0172 4.88448C24.3212 4.95648 24.6052 5.06448 24.8692 5.20848C25.1412 5.34448 25.3812 5.51248 25.5892 5.71248L25.0852 6.86448C24.7892 6.59248 24.4732 6.39248 24.1372 6.26448C23.8012 6.12848 23.4572 6.06048 23.1052 6.06048C22.7612 6.06048 22.4532 6.12448 22.1812 6.25248C21.9172 6.37248 21.6932 6.55648 21.5092 6.80448C21.3252 7.04448 21.1852 7.34848 21.0892 7.71648C21.0012 8.07648 20.9572 8.49648 20.9572 8.97648V9.87648H20.8132C20.8772 9.46848 21.0092 9.12048 21.2092 8.83248C21.4172 8.53648 21.6812 8.31248 22.0012 8.16048C22.3212 8.00048 22.6772 7.92048 23.0692 7.92048C23.5572 7.92048 23.9892 8.03648 24.3652 8.26848C24.7412 8.50048 25.0372 8.82048 25.2532 9.22848C25.4692 9.63648 25.5772 10.1045 25.5772 10.6325C25.5772 11.1765 25.4572 11.6645 25.2172 12.0965C24.9852 12.5205 24.6572 12.8565 24.2332 13.1045C23.8172 13.3445 23.3332 13.4645 22.7812 13.4645ZM22.6972 12.2405C22.9852 12.2405 23.2372 12.1765 23.4532 12.0485C23.6772 11.9205 23.8492 11.7405 23.9692 11.5085C24.0892 11.2685 24.1492 10.9965 24.1492 10.6925C24.1492 10.3805 24.0892 10.1085 23.9692 9.87648C23.8492 9.64448 23.6772 9.46448 23.4532 9.33648C23.2372 9.20048 22.9852 9.13248 22.6972 9.13248C22.4092 9.13248 22.1572 9.20048 21.9412 9.33648C21.7252 9.46448 21.5532 9.64448 21.4252 9.87648C21.3052 10.1085 21.2452 10.3805 21.2452 10.6925C21.2452 10.9965 21.3052 11.2685 21.4252 11.5085C21.5532 11.7405 21.7252 11.9205 21.9412 12.0485C22.1572 12.1765 22.4092 12.2405 22.6972 12.2405Z" fill="white"/>
</svg>
